{"title":"Parked(2010)MPEG-4[DaScubaDude]","uid":15320343,"size":936782815,"categoryP":"video","categoryS":"movies","magnet":"?xt=urn:btih:41ee0ce4651d9d3cd0be3143eb585b7625f04b74&amp;dn=Parked%282010%29MPEG-4%5BDaScubaDude%5D&amp;tr=udp%3A%2F%2Ftracker.leechers-paradise.org%3A6969&amp;tr=udp%3A%2F%2Fzer0day.ch%3A1337&amp;tr=udp%3A%2F%2Fopen.demonii.com%3A1337&amp;tr=udp%3A%2F%2Ftracker.coppersurfer.tk%3A6969&amp;tr=udp%3A%2F%2Fexodus.desync.com%3A6969","seeders":1,"leechers":1,"uploader":"dascuba","files":1,"time":1468638497,"description":"Parked (2010)\r\n1h 34min | Drama | 30 November 2012 (USA)\r\nFred Daly returns to Ireland with nowhere to live but his car. Then dope-smoking 21-year-old Cathal parks beside him, and brightens up his lonely world. Encouraged by Cathal, Fred meets ... See full summary »\r\nDirector: Darragh Byrne\r\nWriter: Ciaran Creagh\r\nStars: Colin Morgan, Colm Meaney, Milka Ahlroth | \r\n\r\nGeneral\r\nComplete name                            : ParkedParked_Title3_1.mp4\r\nFormat                                   : MPEG-4\r\nFormat profile                           : Base Media\r\nCodec ID                                 : isom (isom/iso2/avc1/mp41)\r\nFile size                                : 893 MiB\r\nDuration                                 : 1h 34mn\r\nOverall bit rate mode                    : Variable\r\nOverall bit rate                         : 1 316 Kbps\r\nMovie name                               : Parked\r\nGenre                                    : Drama\r\nWriting application                      : Lavf54.6.100\r\n\r\nVideo\r\nID                                       : 1\r\nFormat                                   : AVC\r\nFormat/Info                              : Advanced Video Codec\r\nFormat profile                           :   \r\nFormat settings, CABAC                   : No\r\nFormat settings, ReFrames                : 6 frames\r\nCodec ID                                 : avc1\r\nCodec ID/Info                            : Advanced Video Coding\r\nDuration                                 : 1h 34mn\r\nBit rate                                 : 1 182 Kbps\r\nWidth                                    : 720 pixels\r\nHeight                                   : 404 pixels\r\nDisplay aspect ratio                     : 16:9\r\nFrame rate mode                          : Constant\r\nFrame rate                               : 29.970 (30000/1001) fps\r\nColor space                              : YUV\r\nChroma subsampling                       : 4:2:0\r\nBit depth                                : 8 bits\r\nScan type                                : Progressive\r\nBits/(Pixel*Frame)                       : 0.136\r\nStream size                              : 803 MiB (90%)\r\n\r\nAudio\r\nID                                       : 2\r\nFormat                                   : AAC\r\nFormat/Info                              : Advanced Audio Codec\r\nFormat profile                           : LC\r\nCodec ID                                 : 40\r\nDuration                                 : 1h 34mn\r\nBit rate mode                            : Variable\r\nBit rate                                 : 127 Kbps\r\nMaximum bit rate                         : 141 Kbps\r\nChannel(s)                               : 2 channels\r\nChannel(s)_Original                      : 6 channels\r\nChannel positions                        : Front: L C R, Side: L R, LFE\r\nSampling rate                            : 44.1 KHz\r\nFrame rate                               : 43.066 fps (1024 spf)\r\nCompression mode                         : Lossy\r\nStream size                              : 86.2 MiB (10%)\r\nDefault                                  : Yes\r\nAlternate group                          : 1","torrent":{"xt":"urn:btih:41ee0ce4651d9d3cd0be3143eb585b7625f04b74","amp;dn":"Parked%282010%29MPEG-4%5BDaScubaDude%5D","amp;tr":["udp%3A%2F%2Ftracker.leechers-paradise.org%3A6969","udp%3A%2F%2Fzer0day.ch%3A1337","udp%3A%2F%2Fopen.demonii.com%3A1337","udp%3A%2F%2Ftracker.coppersurfer.tk%3A6969","udp%3A%2F%2Fexodus.desync.com%3A6969"],"infoHash":"41ee0ce4651d9d3cd0be3143eb585b7625f04b74","infoHashBuffer":{"type":"Buffer","data":[65,238,12,228,101,29,157,60,208,190,49,67,235,88,91,118,37,240,75,116]},"announce":[],"urlList":[]}}